<!DOCTYPE svg PUBLIC "-//W3C//DTD SVG 1.1//EN" "http://www.w3.org/Graphics/SVG/1.1/DTD/svg11.dtd">
<!-- Uploaded to: SVG Repo, www.svgrepo.com, Transformed by: SVG Repo Mixer Tools -->
<svg fill="#000000" height="64px" width="64px" version="1.1" id="Layer_1" xmlns="http://www.w3.org/2000/svg" xmlns:xlink="http://www.w3.org/1999/xlink" viewBox="0 0 511.999 511.999" xml:space="preserve">
<g id="SVGRepo_bgCarrier" stroke-width="0"/>
<g id="SVGRepo_tracerCarrier" stroke-linecap="round" stroke-linejoin="round"/>
<g id="SVGRepo_iconCarrier"> <g> <g> <path d="M503.898,308.993c-3.042-4.366-8.027-6.969-13.349-6.969H368.828c-25.881,0-50.254,13.774-63.605,35.947l-45.482,75.533 H243.41V279.749h84.75c12.778,0,24.105-7.664,28.854-19.527c0,0,0,0,0.001-0.001c18.054-45.095,18.054-94.764-0.001-139.86 c-4.751-11.862-16.077-19.526-28.854-19.526h-15.272c3.807-3.231,6.906-7.34,8.93-12.133c3.827-9.062,3.293-19.187-1.089-27.637 c4.382-8.451,4.916-18.574,1.089-27.637c-5.088-12.048-16.895-19.879-29.973-19.879h-47.979c-0.234,0-0.465,0.013-0.698,0.017 C241.879,5.871,235.203,0,227.142,0c-8.984,0-16.268,7.284-16.268,16.268v84.566h-81.04c-8.219,0-15.907,4.04-20.565,10.807 c-4.661,6.771-5.693,15.396-2.757,23.075c13.705,35.838,13.705,75.311,0,111.152c-2.934,7.675-1.902,16.301,2.76,23.073 c4.659,6.768,12.346,10.807,20.562,10.807h81.04v133.754h-18.668v-39.399c0-8.984-7.284-16.268-16.268-16.268h-6.015v-28.103 h6.015c8.984,0,16.268-7.284,16.268-16.268s-7.284-16.268-16.268-16.268H21.449c-8.984,0-16.268,7.284-16.268,16.268 s7.284,16.268,16.268,16.268h1.987v28.103h-1.987c-8.984,0-16.268,7.284-16.268,16.268v31.888c0,25.48,20.73,46.209,46.209,46.209 h5.513v13.59c0,25.48,20.73,46.209,46.209,46.209h252.852c25.48,0,46.209-20.73,46.209-46.209v-14.789 c36.56-5.65,68.088-30.84,81.154-66.209l22.482-60.865C507.654,318.937,506.94,313.359,503.898,308.993z M243.866,46.085h47.979 l-14.574,14.98l14.574,14.98h-47.979V46.085z M140.496,247.213c11.779-37.072,11.779-76.772,0-113.843h186.677 c14.448,36.746,14.447,77.097,0,113.843H140.496z M112.947,329.732h24.439v28.103h-24.439V329.732z M55.973,329.733h24.439v28.103 H55.973V329.733z M452.807,373.52c-10.196,27.602-36.815,46.145-66.238,46.145h-0.664c-8.984,0-16.268,7.284-16.268,16.268v29.858 c0,7.54-6.133,13.673-13.673,13.673H103.112c-7.54,0-13.673-6.134-13.673-13.673v-29.858c0-8.984-7.284-16.268-16.268-16.268 H51.39c-7.54,0-13.673-6.134-13.673-13.673v-15.62c0.653,0.079,121.951,0,121.951,0v39.399c0,8.984,7.284,16.268,16.268,16.268 h92.998c5.706,0,10.994-2.989,13.937-7.876l50.225-83.409c7.5-12.456,21.192-20.194,35.731-20.194h98.37L452.807,373.52z"/> </g> </g> </g>
</svg>